<mxfile host="Electron" modified="2024-03-22T08:44:36.674Z" agent="Mozilla/5.0 (Macintosh; Intel Mac OS X 10_15_7) AppleWebKit/537.36 (KHTML, like Gecko) draw.io/24.0.4 Chrome/120.0.6099.109 Electron/28.1.0 Safari/537.36" etag="qmiPMmPE3VYiRNMeLQqK" version="24.0.4" type="device">
  <diagram name="Page-1" id="a8_PhJwDGyZRb4poQ8xm">
    <mxGraphModel dx="2343" dy="1093" grid="1" gridSize="10" guides="1" tooltips="1" connect="1" arrows="1" fold="1" page="1" pageScale="1" pageWidth="850" pageHeight="1100" background="none" math="0" shadow="0">
      <root>
        <mxCell id="0" />
        <mxCell id="1" parent="0" />
        <mxCell id="ZGrB_38wMBr9Ecal8B5S-1" value="AWS Cloud" style="points=[[0,0],[0.25,0],[0.5,0],[0.75,0],[1,0],[1,0.25],[1,0.5],[1,0.75],[1,1],[0.75,1],[0.5,1],[0.25,1],[0,1],[0,0.75],[0,0.5],[0,0.25]];outlineConnect=0;gradientColor=none;html=1;whiteSpace=wrap;fontSize=12;fontStyle=0;container=1;pointerEvents=0;collapsible=0;recursiveResize=0;shape=mxgraph.aws4.group;grIcon=mxgraph.aws4.group_aws_cloud_alt;strokeColor=#FFFFFF;fillColor=none;verticalAlign=top;align=left;spacingLeft=30;fontColor=#FFFFFF;dashed=0;" parent="1" vertex="1">
          <mxGeometry x="440" y="150" width="455" height="455" as="geometry" />
        </mxCell>
        <mxCell id="ZGrB_38wMBr9Ecal8B5S-3" value="&lt;font color=&quot;#ffffff&quot;&gt;Amazon&lt;br&gt;S3&lt;/font&gt;" style="sketch=0;points=[[0,0,0],[0.25,0,0],[0.5,0,0],[0.75,0,0],[1,0,0],[0,1,0],[0.25,1,0],[0.5,1,0],[0.75,1,0],[1,1,0],[0,0.25,0],[0,0.5,0],[0,0.75,0],[1,0.25,0],[1,0.5,0],[1,0.75,0]];outlineConnect=0;fontColor=#232F3E;fillColor=#7AA116;strokeColor=#ffffff;dashed=0;verticalLabelPosition=top;verticalAlign=bottom;align=center;html=1;fontSize=12;fontStyle=0;aspect=fixed;shape=mxgraph.aws4.resourceIcon;resIcon=mxgraph.aws4.s3;labelPosition=center;" parent="ZGrB_38wMBr9Ecal8B5S-1" vertex="1">
          <mxGeometry x="360" y="172.5" width="50" height="50" as="geometry" />
        </mxCell>
        <mxCell id="ZGrB_38wMBr9Ecal8B5S-4" value="Amazon &lt;br&gt;Route 53" style="sketch=0;points=[[0,0,0],[0.25,0,0],[0.5,0,0],[0.75,0,0],[1,0,0],[0,1,0],[0.25,1,0],[0.5,1,0],[0.75,1,0],[1,1,0],[0,0.25,0],[0,0.5,0],[0,0.75,0],[1,0.25,0],[1,0.5,0],[1,0.75,0]];outlineConnect=0;fontColor=#FFFFFF;fillColor=#8C4FFF;strokeColor=#ffffff;dashed=0;verticalLabelPosition=bottom;verticalAlign=top;align=center;html=1;fontSize=12;fontStyle=0;aspect=fixed;shape=mxgraph.aws4.resourceIcon;resIcon=mxgraph.aws4.route_53;" parent="ZGrB_38wMBr9Ecal8B5S-1" vertex="1">
          <mxGeometry x="40" y="172.5" width="50" height="50" as="geometry" />
        </mxCell>
        <mxCell id="ZGrB_38wMBr9Ecal8B5S-24" value="TLS/SSL" style="edgeStyle=orthogonalEdgeStyle;rounded=0;orthogonalLoop=1;jettySize=auto;html=1;" parent="ZGrB_38wMBr9Ecal8B5S-1" source="ZGrB_38wMBr9Ecal8B5S-7" target="ZGrB_38wMBr9Ecal8B5S-18" edge="1">
          <mxGeometry relative="1" as="geometry" />
        </mxCell>
        <mxCell id="ZGrB_38wMBr9Ecal8B5S-25" value="Origin" style="edgeStyle=orthogonalEdgeStyle;rounded=0;orthogonalLoop=1;jettySize=auto;html=1;" parent="ZGrB_38wMBr9Ecal8B5S-1" source="ZGrB_38wMBr9Ecal8B5S-7" target="ZGrB_38wMBr9Ecal8B5S-3" edge="1">
          <mxGeometry x="0.0047" relative="1" as="geometry">
            <mxPoint as="offset" />
          </mxGeometry>
        </mxCell>
        <mxCell id="ZGrB_38wMBr9Ecal8B5S-7" value="Amazon&lt;br&gt;&amp;nbsp;CloudfFront" style="sketch=0;points=[[0,0,0],[0.25,0,0],[0.5,0,0],[0.75,0,0],[1,0,0],[0,1,0],[0.25,1,0],[0.5,1,0],[0.75,1,0],[1,1,0],[0,0.25,0],[0,0.5,0],[0,0.75,0],[1,0.25,0],[1,0.5,0],[1,0.75,0]];outlineConnect=0;fontColor=#FFFFFF;fillColor=#8C4FFF;strokeColor=#ffffff;dashed=0;verticalLabelPosition=bottom;verticalAlign=top;align=center;html=1;fontSize=12;fontStyle=0;aspect=fixed;shape=mxgraph.aws4.resourceIcon;resIcon=mxgraph.aws4.cloudfront;" parent="ZGrB_38wMBr9Ecal8B5S-1" vertex="1">
          <mxGeometry x="202.5" y="172.5" width="50" height="50" as="geometry" />
        </mxCell>
        <mxCell id="ZGrB_38wMBr9Ecal8B5S-18" value="&lt;font color=&quot;#ffffff&quot;&gt;AWS&lt;br&gt;Certificate&lt;br&gt;Manager&lt;br&gt;&lt;/font&gt;" style="sketch=0;points=[[0,0,0],[0.25,0,0],[0.5,0,0],[0.75,0,0],[1,0,0],[0,1,0],[0.25,1,0],[0.5,1,0],[0.75,1,0],[1,1,0],[0,0.25,0],[0,0.5,0],[0,0.75,0],[1,0.25,0],[1,0.5,0],[1,0.75,0]];outlineConnect=0;fontColor=#232F3E;fillColor=#DD344C;strokeColor=#ffffff;dashed=0;verticalLabelPosition=top;verticalAlign=bottom;align=center;html=1;fontSize=12;fontStyle=0;aspect=fixed;shape=mxgraph.aws4.resourceIcon;resIcon=mxgraph.aws4.certificate_manager_3;labelPosition=center;" parent="ZGrB_38wMBr9Ecal8B5S-1" vertex="1">
          <mxGeometry x="202.5" y="60" width="50" height="50" as="geometry" />
        </mxCell>
        <mxCell id="ZGrB_38wMBr9Ecal8B5S-22" value="CF distribution" style="edgeStyle=orthogonalEdgeStyle;rounded=0;orthogonalLoop=1;jettySize=auto;html=1;entryX=0;entryY=0.5;entryDx=0;entryDy=0;entryPerimeter=0;" parent="ZGrB_38wMBr9Ecal8B5S-1" source="ZGrB_38wMBr9Ecal8B5S-4" target="ZGrB_38wMBr9Ecal8B5S-7" edge="1">
          <mxGeometry relative="1" as="geometry" />
        </mxCell>
        <mxCell id="ZGrB_38wMBr9Ecal8B5S-30" value="" style="group" parent="ZGrB_38wMBr9Ecal8B5S-1" vertex="1" connectable="0">
          <mxGeometry x="70" y="290" width="300" height="130" as="geometry" />
        </mxCell>
        <mxCell id="ZGrB_38wMBr9Ecal8B5S-2" value="&lt;font color=&quot;#ffffff&quot;&gt;AWS Lambda&lt;/font&gt;" style="sketch=0;points=[[0,0,0],[0.25,0,0],[0.5,0,0],[0.75,0,0],[1,0,0],[0,1,0],[0.25,1,0],[0.5,1,0],[0.75,1,0],[1,1,0],[0,0.25,0],[0,0.5,0],[0,0.75,0],[1,0.25,0],[1,0.5,0],[1,0.75,0]];outlineConnect=0;fontColor=#232F3E;fillColor=#ED7100;strokeColor=#ffffff;dashed=0;verticalLabelPosition=bottom;verticalAlign=top;align=center;html=1;fontSize=12;fontStyle=0;aspect=fixed;shape=mxgraph.aws4.resourceIcon;resIcon=mxgraph.aws4.lambda;" parent="ZGrB_38wMBr9Ecal8B5S-30" vertex="1">
          <mxGeometry x="210" y="30" width="50" height="50" as="geometry" />
        </mxCell>
        <mxCell id="ZGrB_38wMBr9Ecal8B5S-5" value="&lt;font color=&quot;#ffffff&quot;&gt;AWS&lt;br&gt;DynamoDB&lt;br&gt;&lt;/font&gt;" style="sketch=0;points=[[0,0,0],[0.25,0,0],[0.5,0,0],[0.75,0,0],[1,0,0],[0,1,0],[0.25,1,0],[0.5,1,0],[0.75,1,0],[1,1,0],[0,0.25,0],[0,0.5,0],[0,0.75,0],[1,0.25,0],[1,0.5,0],[1,0.75,0]];outlineConnect=0;fontColor=#232F3E;fillColor=#C925D1;strokeColor=#ffffff;dashed=0;verticalLabelPosition=bottom;verticalAlign=top;align=center;html=1;fontSize=12;fontStyle=0;aspect=fixed;shape=mxgraph.aws4.resourceIcon;resIcon=mxgraph.aws4.dynamodb;" parent="ZGrB_38wMBr9Ecal8B5S-30" vertex="1">
          <mxGeometry x="40" y="30" width="50" height="50" as="geometry" />
        </mxCell>
        <mxCell id="ZGrB_38wMBr9Ecal8B5S-35" value="Vistors count" style="edgeStyle=orthogonalEdgeStyle;rounded=0;orthogonalLoop=1;jettySize=auto;html=1;entryX=1;entryY=0.5;entryDx=0;entryDy=0;entryPerimeter=0;" parent="ZGrB_38wMBr9Ecal8B5S-30" source="ZGrB_38wMBr9Ecal8B5S-2" target="ZGrB_38wMBr9Ecal8B5S-5" edge="1">
          <mxGeometry relative="1" as="geometry" />
        </mxCell>
        <mxCell id="ZGrB_38wMBr9Ecal8B5S-33" style="edgeStyle=orthogonalEdgeStyle;rounded=0;orthogonalLoop=1;jettySize=auto;html=1;exitX=0.5;exitY=1;exitDx=0;exitDy=0;exitPerimeter=0;entryX=1;entryY=0.5;entryDx=0;entryDy=0;entryPerimeter=0;" parent="ZGrB_38wMBr9Ecal8B5S-1" source="ZGrB_38wMBr9Ecal8B5S-3" target="ZGrB_38wMBr9Ecal8B5S-2" edge="1">
          <mxGeometry relative="1" as="geometry" />
        </mxCell>
        <mxCell id="ZGrB_38wMBr9Ecal8B5S-34" value="Counter function" style="edgeLabel;html=1;align=center;verticalAlign=middle;resizable=0;points=[];" parent="ZGrB_38wMBr9Ecal8B5S-33" vertex="1" connectable="0">
          <mxGeometry x="-0.4423" y="2" relative="1" as="geometry">
            <mxPoint y="1" as="offset" />
          </mxGeometry>
        </mxCell>
        <mxCell id="ZGrB_38wMBr9Ecal8B5S-17" value="Request" style="edgeStyle=orthogonalEdgeStyle;rounded=0;orthogonalLoop=1;jettySize=auto;html=1;" parent="1" source="ZGrB_38wMBr9Ecal8B5S-15" target="ZGrB_38wMBr9Ecal8B5S-16" edge="1">
          <mxGeometry relative="1" as="geometry" />
        </mxCell>
        <mxCell id="ZGrB_38wMBr9Ecal8B5S-15" value="Users" style="sketch=0;outlineConnect=0;gradientColor=none;fontColor=#FFFFFF;strokeColor=none;fillColor=#FFFFFF;dashed=0;verticalLabelPosition=bottom;verticalAlign=top;align=center;html=1;fontSize=12;fontStyle=0;aspect=fixed;shape=mxgraph.aws4.illustration_users;pointerEvents=1" parent="1" vertex="1">
          <mxGeometry x="90" y="325" width="45" height="45" as="geometry" />
        </mxCell>
        <mxCell id="ZGrB_38wMBr9Ecal8B5S-14" value="" style="shape=image;verticalLabelPosition=bottom;verticalAlign=top;imageAspect=0;image=data:image/svg+xml,PHN2ZyB4bWxuczp4bGluaz0iaHR0cDovL3d3dy53My5vcmcvMTk5OS94bGluayIgeG1sbnM9Imh0dHA6Ly93d3cudzMub3JnLzIwMDAvc3ZnIiB4bWw6c3BhY2U9InByZXNlcnZlIiBzdHlsZT0iZW5hYmxlLWJhY2tncm91bmQ6bmV3IDAgMCAzMDQgMTgyOyIgdmlld0JveD0iMCAwIDMwNCAxODIiIHk9IjBweCIgeD0iMHB4IiBpZD0iTGF5ZXJfMSIgdmVyc2lvbj0iMS4xIj4mI3hhOzxzdHlsZSB0eXBlPSJ0ZXh0L2NzcyI+JiN4YTsJLnN0MHtmaWxsOiNGRkZGRkY7fSYjeGE7CS5zdDF7ZmlsbC1ydWxlOmV2ZW5vZGQ7Y2xpcC1ydWxlOmV2ZW5vZGQ7ZmlsbDojRkY5OTAwO30mI3hhOzwvc3R5bGU+JiN4YTs8Zz4mI3hhOwk8cGF0aCBkPSJNODYuNCw2Ni40YzAsMy43LDAuNCw2LjcsMS4xLDguOWMwLjgsMi4yLDEuOCw0LjYsMy4yLDcuMmMwLjUsMC44LDAuNywxLjYsMC43LDIuM2MwLDEtMC42LDItMS45LDNsLTYuMyw0LjIgICBjLTAuOSwwLjYtMS44LDAuOS0yLjYsMC45Yy0xLDAtMi0wLjUtMy0xLjRDNzYuMiw5MCw3NSw4OC40LDc0LDg2LjhjLTEtMS43LTItMy42LTMuMS01LjljLTcuOCw5LjItMTcuNiwxMy44LTI5LjQsMTMuOCAgIGMtOC40LDAtMTUuMS0yLjQtMjAtNy4yYy00LjktNC44LTcuNC0xMS4yLTcuNC0xOS4yYzAtOC41LDMtMTUuNCw5LjEtMjAuNmM2LjEtNS4yLDE0LjItNy44LDI0LjUtNy44YzMuNCwwLDYuOSwwLjMsMTAuNiwwLjggICBjMy43LDAuNSw3LjUsMS4zLDExLjUsMi4ydi03LjNjMC03LjYtMS42LTEyLjktNC43LTE2Yy0zLjItMy4xLTguNi00LjYtMTYuMy00LjZjLTMuNSwwLTcuMSwwLjQtMTAuOCwxLjNjLTMuNywwLjktNy4zLDItMTAuOCwzLjQgICBjLTEuNiwwLjctMi44LDEuMS0zLjUsMS4zYy0wLjcsMC4yLTEuMiwwLjMtMS42LDAuM2MtMS40LDAtMi4xLTEtMi4xLTMuMXYtNC45YzAtMS42LDAuMi0yLjgsMC43LTMuNWMwLjUtMC43LDEuNC0xLjQsMi44LTIuMSAgIGMzLjUtMS44LDcuNy0zLjMsMTIuNi00LjVjNC45LTEuMywxMC4xLTEuOSwxNS42LTEuOWMxMS45LDAsMjAuNiwyLjcsMjYuMiw4LjFjNS41LDUuNCw4LjMsMTMuNiw4LjMsMjQuNlY2Ni40eiBNNDUuOCw4MS42ICAgYzMuMywwLDYuNy0wLjYsMTAuMy0xLjhjMy42LTEuMiw2LjgtMy40LDkuNS02LjRjMS42LTEuOSwyLjgtNCwzLjQtNi40YzAuNi0yLjQsMS01LjMsMS04Ljd2LTQuMmMtMi45LTAuNy02LTEuMy05LjItMS43ICAgYy0zLjItMC40LTYuMy0wLjYtOS40LTAuNmMtNi43LDAtMTEuNiwxLjMtMTQuOSw0Yy0zLjMsMi43LTQuOSw2LjUtNC45LDExLjVjMCw0LjcsMS4yLDguMiwzLjcsMTAuNiAgIEMzNy43LDgwLjQsNDEuMiw4MS42LDQ1LjgsODEuNnogTTEyNi4xLDkyLjRjLTEuOCwwLTMtMC4zLTMuOC0xYy0wLjgtMC42LTEuNS0yLTIuMS0zLjlMOTYuNywxMC4yYy0wLjYtMi0wLjktMy4zLTAuOS00ICAgYzAtMS42LDAuOC0yLjUsMi40LTIuNWg5LjhjMS45LDAsMy4yLDAuMywzLjksMWMwLjgsMC42LDEuNCwyLDIsMy45bDE2LjgsNjYuMmwxNS42LTY2LjJjMC41LTIsMS4xLTMuMywxLjktMy45YzAuOC0wLjYsMi4yLTEsNC0xICAgaDhjMS45LDAsMy4yLDAuMyw0LDFjMC44LDAuNiwxLjUsMiwxLjksMy45bDE1LjgsNjdsMTcuMy02N2MwLjYtMiwxLjMtMy4zLDItMy45YzAuOC0wLjYsMi4xLTEsMy45LTFoOS4zYzEuNiwwLDIuNSwwLjgsMi41LDIuNSAgIGMwLDAuNS0wLjEsMS0wLjIsMS42Yy0wLjEsMC42LTAuMywxLjQtMC43LDIuNWwtMjQuMSw3Ny4zYy0wLjYsMi0xLjMsMy4zLTIuMSwzLjljLTAuOCwwLjYtMi4xLDEtMy44LDFoLTguNmMtMS45LDAtMy4yLTAuMy00LTEgICBjLTAuOC0wLjctMS41LTItMS45LTRMMTU2LDIzbC0xNS40LDY0LjRjLTAuNSwyLTEuMSwzLjMtMS45LDRjLTAuOCwwLjctMi4yLDEtNCwxSDEyNi4xeiBNMjU0LjYsOTUuMWMtNS4yLDAtMTAuNC0wLjYtMTUuNC0xLjggICBjLTUtMS4yLTguOS0yLjUtMTEuNS00Yy0xLjYtMC45LTIuNy0xLjktMy4xLTIuOGMtMC40LTAuOS0wLjYtMS45LTAuNi0yLjh2LTUuMWMwLTIuMSwwLjgtMy4xLDIuMy0zLjFjMC42LDAsMS4yLDAuMSwxLjgsMC4zICAgYzAuNiwwLjIsMS41LDAuNiwyLjUsMWMzLjQsMS41LDcuMSwyLjcsMTEsMy41YzQsMC44LDcuOSwxLjIsMTEuOSwxLjJjNi4zLDAsMTEuMi0xLjEsMTQuNi0zLjNjMy40LTIuMiw1LjItNS40LDUuMi05LjUgICBjMC0yLjgtMC45LTUuMS0yLjctN2MtMS44LTEuOS01LjItMy42LTEwLjEtNS4yTDI0Niw1MmMtNy4zLTIuMy0xMi43LTUuNy0xNi0xMC4yYy0zLjMtNC40LTUtOS4zLTUtMTQuNWMwLTQuMiwwLjktNy45LDIuNy0xMS4xICAgYzEuOC0zLjIsNC4yLTYsNy4yLTguMmMzLTIuMyw2LjQtNCwxMC40LTUuMmM0LTEuMiw4LjItMS43LDEyLjYtMS43YzIuMiwwLDQuNSwwLjEsNi43LDAuNGMyLjMsMC4zLDQuNCwwLjcsNi41LDEuMSAgIGMyLDAuNSwzLjksMSw1LjcsMS42YzEuOCwwLjYsMy4yLDEuMiw0LjIsMS44YzEuNCwwLjgsMi40LDEuNiwzLDIuNWMwLjYsMC44LDAuOSwxLjksMC45LDMuM3Y0LjdjMCwyLjEtMC44LDMuMi0yLjMsMy4yICAgYy0wLjgsMC0yLjEtMC40LTMuOC0xLjJjLTUuNy0yLjYtMTIuMS0zLjktMTkuMi0zLjljLTUuNywwLTEwLjIsMC45LTEzLjMsMi44Yy0zLjEsMS45LTQuNyw0LjgtNC43LDguOWMwLDIuOCwxLDUuMiwzLDcuMSAgIGMyLDEuOSw1LjcsMy44LDExLDUuNWwxNC4yLDQuNWM3LjIsMi4zLDEyLjQsNS41LDE1LjUsOS42YzMuMSw0LjEsNC42LDguOCw0LjYsMTRjMCw0LjMtMC45LDguMi0yLjYsMTEuNiAgIGMtMS44LDMuNC00LjIsNi40LTcuMyw4LjhjLTMuMSwyLjUtNi44LDQuMy0xMS4xLDUuNkMyNjQuNCw5NC40LDI1OS43LDk1LjEsMjU0LjYsOTUuMXoiIGNsYXNzPSJzdDAiLz4mI3hhOwk8Zz4mI3hhOwkJPHBhdGggZD0iTTI3My41LDE0My43Yy0zMi45LDI0LjMtODAuNywzNy4yLTEyMS44LDM3LjJjLTU3LjYsMC0xMDkuNS0yMS4zLTE0OC43LTU2LjdjLTMuMS0yLjgtMC4zLTYuNiwzLjQtNC40ICAgIGM0Mi40LDI0LjYsOTQuNywzOS41LDE0OC44LDM5LjVjMzYuNSwwLDc2LjYtNy42LDExMy41LTIzLjJDMjc0LjIsMTMzLjYsMjc4LjksMTM5LjcsMjczLjUsMTQzLjd6IiBjbGFzcz0ic3QxIi8+JiN4YTsJCTxwYXRoIGQ9Ik0yODcuMiwxMjguMWMtNC4yLTUuNC0yNy44LTIuNi0zOC41LTEuM2MtMy4yLDAuNC0zLjctMi40LTAuOC00LjVjMTguOC0xMy4yLDQ5LjctOS40LDUzLjMtNSAgICBjMy42LDQuNS0xLDM1LjQtMTguNiw1MC4yYy0yLjcsMi4zLTUuMywxLjEtNC4xLTEuOUMyODIuNSwxNTUuNywyOTEuNCwxMzMuNCwyODcuMiwxMjguMXoiIGNsYXNzPSJzdDEiLz4mI3hhOwk8L2c+JiN4YTs8L2c+JiN4YTs8L3N2Zz4=;aspect=fixed;" parent="1" vertex="1">
          <mxGeometry x="39.75" y="640" width="50.25" height="30" as="geometry" />
        </mxCell>
        <mxCell id="ZGrB_38wMBr9Ecal8B5S-16" value="&lt;font color=&quot;#ffffff&quot;&gt;My website&lt;/font&gt;" style="sketch=0;outlineConnect=0;fontColor=#232F3E;gradientColor=none;fillColor=#FFFFFF;strokeColor=none;dashed=0;verticalLabelPosition=bottom;verticalAlign=top;align=center;html=1;fontSize=12;fontStyle=0;aspect=fixed;pointerEvents=1;shape=mxgraph.aws4.globe;" parent="1" vertex="1">
          <mxGeometry x="280" y="325" width="45" height="45" as="geometry" />
        </mxCell>
        <mxCell id="ZGrB_38wMBr9Ecal8B5S-21" value="DNS&lt;br&gt;Hosted&lt;br&gt;Zone" style="edgeStyle=orthogonalEdgeStyle;rounded=0;orthogonalLoop=1;jettySize=auto;html=1;entryX=0;entryY=0.5;entryDx=0;entryDy=0;entryPerimeter=0;" parent="1" source="ZGrB_38wMBr9Ecal8B5S-16" target="ZGrB_38wMBr9Ecal8B5S-4" edge="1">
          <mxGeometry relative="1" as="geometry" />
        </mxCell>
        <mxCell id="T7d8gfbyC1gQBo59BE0N-11" style="edgeStyle=orthogonalEdgeStyle;rounded=0;orthogonalLoop=1;jettySize=auto;html=1;startArrow=classic;startFill=1;endArrow=none;endFill=0;" edge="1" parent="1" source="ZGrB_38wMBr9Ecal8B5S-40" target="T7d8gfbyC1gQBo59BE0N-2">
          <mxGeometry relative="1" as="geometry" />
        </mxCell>
        <mxCell id="T7d8gfbyC1gQBo59BE0N-12" value="Terraform&lt;div&gt;Apply&lt;/div&gt;&lt;div&gt;Automation&lt;/div&gt;" style="edgeLabel;html=1;align=center;verticalAlign=middle;resizable=0;points=[];" vertex="1" connectable="0" parent="T7d8gfbyC1gQBo59BE0N-11">
          <mxGeometry x="0.3671" relative="1" as="geometry">
            <mxPoint as="offset" />
          </mxGeometry>
        </mxCell>
        <mxCell id="T7d8gfbyC1gQBo59BE0N-14" style="edgeStyle=orthogonalEdgeStyle;rounded=0;orthogonalLoop=1;jettySize=auto;html=1;entryX=0.5;entryY=0;entryDx=0;entryDy=0;startArrow=classic;startFill=1;endArrow=none;endFill=0;" edge="1" parent="1" source="ZGrB_38wMBr9Ecal8B5S-40" target="T7d8gfbyC1gQBo59BE0N-3">
          <mxGeometry relative="1" as="geometry" />
        </mxCell>
        <mxCell id="T7d8gfbyC1gQBo59BE0N-15" value="Terraform&lt;div&gt;Plan&lt;/div&gt;&lt;div&gt;Automation&lt;/div&gt;" style="edgeLabel;html=1;align=center;verticalAlign=middle;resizable=0;points=[];" vertex="1" connectable="0" parent="T7d8gfbyC1gQBo59BE0N-14">
          <mxGeometry x="0.3119" y="-1" relative="1" as="geometry">
            <mxPoint as="offset" />
          </mxGeometry>
        </mxCell>
        <mxCell id="T7d8gfbyC1gQBo59BE0N-24" style="edgeStyle=orthogonalEdgeStyle;rounded=0;orthogonalLoop=1;jettySize=auto;html=1;entryX=0.5;entryY=1;entryDx=0;entryDy=0;" edge="1" parent="1" source="ZGrB_38wMBr9Ecal8B5S-40" target="T7d8gfbyC1gQBo59BE0N-1">
          <mxGeometry relative="1" as="geometry" />
        </mxCell>
        <mxCell id="T7d8gfbyC1gQBo59BE0N-25" value="State&amp;nbsp;&lt;div&gt;Management&lt;/div&gt;" style="edgeLabel;html=1;align=center;verticalAlign=middle;resizable=0;points=[];" vertex="1" connectable="0" parent="T7d8gfbyC1gQBo59BE0N-24">
          <mxGeometry x="0.24" y="3" relative="1" as="geometry">
            <mxPoint as="offset" />
          </mxGeometry>
        </mxCell>
        <mxCell id="ZGrB_38wMBr9Ecal8B5S-40" value="GitHub Action &#xa;(CI/CD)" style="shape=image;verticalLabelPosition=bottom;verticalAlign=top;imageAspect=0;image=data:image/svg+xml,PHN2ZyB4bWxucz0iaHR0cDovL3d3dy53My5vcmcvMjAwMC9zdmciIHZpZXdCb3g9IjAgMCAxMjggMTI4Ij48cGF0aCBkPSJNMjYuNjY2IDBDMTEuOTcgMCAwIDExLjk3IDAgMjYuNjY2YzAgMTIuODcgOS4xODEgMjMuNjUxIDIxLjMzNCAyNi4xM3YzNy44N2MwIDExLjc3IDkuNjggMjEuMzM0IDIxLjMzMiAyMS4zMzRoLjE5NWMxLjMwMiA5LjAyMyA5LjEgMTYgMTguNDczIDE2QzcxLjYxMiAxMjggODAgMTE5LjYxMiA4MCAxMDkuMzM0cy04LjM4OC0xOC42NjgtMTguNjY2LTE4LjY2OGMtOS4zNzIgMC0xNy4xNyA2Ljk3Ny0xOC40NzMgMTZoLS4xOTVjLTguNzM3IDAtMTYtNy4xNTItMTYtMTZWNjMuNzc5YTE4LjUxNCAxOC41MTQgMCAwIDAgMTMuMjQgNS41NTVoMi45NTVjMS4zMDMgOS4wMjMgOS4xIDE2IDE4LjQ3MyAxNiA5LjM3MiAwIDE3LjE2OS02Ljk3NyAxOC40Ny0xNmgxMS4wNTdjMS4zMDMgOS4wMjMgOS4xIDE2IDE4LjQ3MyAxNiAxMC4yNzggMCAxOC42NjYtOC4zOSAxOC42NjYtMTguNjY4QzEyOCA1Ni4zODggMTE5LjYxMiA0OCAxMDkuMzM0IDQ4Yy05LjM3MyAwLTE3LjE3MSA2Ljk3Ny0xOC40NzMgMTZINzkuODA1Yy0xLjMwMS05LjAyMy05LjA5OC0xNi0xOC40NzEtMTZzLTE3LjE3MSA2Ljk3Ny0xOC40NzMgMTZoLTIuOTU1Yy02LjQzMyAwLTExLjc5My00LjU4OS0xMi45ODgtMTAuNjcyIDE0LjU4LS4xMzYgMjYuNDE2LTEyLjA1IDI2LjQxNi0yNi42NjJDNTMuMzM0IDExLjk3IDQxLjM2MiAwIDI2LjY2NiAwem0wIDUuMzM0QTIxLjI5MiAyMS4yOTIgMCAwIDEgNDggMjYuNjY2IDIxLjI5NCAyMS4yOTQgMCAwIDEgMjYuNjY2IDQ4IDIxLjI5MiAyMS4yOTIgMCAwIDEgNS4zMzQgMjYuNjY2IDIxLjI5IDIxLjI5IDAgMCAxIDI2LjY2NiA1LjMzNHptLTUuMjE1IDcuNTQxQzE4LjY3IDEyLjg4OSAxNiAxNS4xMjMgMTYgMTguMTY2djE3LjA0M2MwIDQuMDQzIDQuNzA5IDYuNjYzIDguMTQ1IDQuNTMzbDEzLjYzNC04LjQ1NWMzLjI1Ny0yLjAyIDMuMjc0LTcuMDAyLjAzMi05LjA0NWwtMTMuNjM1LTguNTlhNS4wMjQgNS4wMjQgMCAwIDAtMi43MjUtLjc3N3ptLS4xMTcgNS4yOTEgMTMuNjM1IDguNTg4LTEzLjYzNSA4LjQ1NVYxOC4xNjZ6bTQwIDM1LjE2OGExMy4yOSAxMy4yOSAwIDAgMSAxMy4zMzIgMTMuMzMyQTEzLjI5MyAxMy4yOTMgMCAwIDEgNjEuMzM0IDgwIDEzLjI5NCAxMy4yOTQgMCAwIDEgNDggNjYuNjY2YTEzLjI5MyAxMy4yOTMgMCAwIDEgMTMuMzM0LTEzLjMzMnptNDggMGExMy4yOSAxMy4yOSAwIDAgMSAxMy4zMzIgMTMuMzMyQTEzLjI5MyAxMy4yOTMgMCAwIDEgMTA5LjMzNCA4MCAxMy4yOTQgMTMuMjk0IDAgMCAxIDk2IDY2LjY2NmExMy4yOTMgMTMuMjkzIDAgMCAxIDEzLjMzNC0xMy4zMzJ6bS00Mi41NjggNi45NTFhMi42NjcgMi42NjcgMCAwIDAtMS44ODcuNzhsLTYuMyA2LjI5NC0yLjA5My0yLjA4NGEyLjY2NyAyLjY2NyAwIDAgMC0zLjc3MS4wMDYgMi42NjcgMi42NjcgMCAwIDAgLjAwOCAzLjc3MmwzLjk3NCAzLjk2YTIuNjY3IDIuNjY3IDAgMCAwIDMuNzY2LS4wMDFsOC4xODUtOC4xNzRhMi42NjcgMi42NjcgMCAwIDAgLjAwMi0zLjc3MiAyLjY2NyAyLjY2NyAwIDAgMC0xLjg4NC0uNzh6bTQ4IDBhMi42NjcgMi42NjcgMCAwIDAtMS44ODcuNzhsLTYuMyA2LjI5NC0yLjA5My0yLjA4NGEyLjY2NyAyLjY2NyAwIDAgMC0zLjc3MS4wMDYgMi42NjcgMi42NjcgMCAwIDAgLjAwOCAzLjc3MmwzLjk3NCAzLjk2YTIuNjY3IDIuNjY3IDAgMCAwIDMuNzY2LS4wMDFsOC4xODUtOC4xNzRhMi42NjcgMi42NjcgMCAwIDAgLjAwMi0zLjc3MiAyLjY2NyAyLjY2NyAwIDAgMC0xLjg4NC0uNzh6TTYxLjMzNCA5NmExMy4yOTMgMTMuMjkzIDAgMCAxIDEzLjMzMiAxMy4zMzQgMTMuMjkgMTMuMjkgMCAwIDEtMTMuMzMyIDEzLjMzMkExMy4yOTMgMTMuMjkzIDAgMCAxIDQ4IDEwOS4zMzQgMTMuMjk0IDEzLjI5NCAwIDAgMSA2MS4zMzQgOTZ6TTU2IDEwNS4zMzRjLTIuMTkzIDAtNCAxLjgwNy00IDQgMCAyLjE5NSAxLjgwOCA0IDQgNHM0LTEuODA1IDQtNGMwLTIuMTkzLTEuODA3LTQtNC00em0xMC42NjYgMGMtMi4xOTMgMC00IDEuODA3LTQgNCAwIDIuMTk1IDEuODA4IDQgNCA0czQtMS44MDUgNC00YzAtMi4xOTMtMS44MDctNC00LTR6TTU2IDEwOGMuNzUgMCAxLjMzNC41ODUgMS4zMzQgMS4zMzQgMCAuNzUzLS41ODMgMS4zMzItMS4zMzQgMS4zMzItLjc1IDAtMS4zMzQtLjU4LTEuMzM0LTEuMzMyIDAtLjc1LjU4NS0xLjMzNCAxLjMzNC0xLjMzNHptMTAuNjY2IDBjLjc1IDAgMS4zMzQuNTg1IDEuMzM0IDEuMzM0IDAgLjc1My0uNTgzIDEuMzMyLTEuMzM0IDEuMzMyLS43NSAwLTEuMzMyLS41OC0xLjMzMi0xLjMzMiAwLS43NS41ODMtMS4zMzQgMS4zMzItMS4zMzR6IiBmaWxsPSIjMjA4OGZmIi8+PHBhdGggZD0iTTEwOS4zMzQgOTAuNjY2Yy05LjM4MyAwLTE3LjE4OCA2Ljk5My0xOC40NzcgMTYuMDMxYTIuNjY3IDIuNjY3IDAgMCAwLS4yNjUtLjAxMWwtMi43LjA5YTIuNjY3IDIuNjY3IDAgMCAwLTIuNTc4IDIuNzUxIDIuNjY3IDIuNjY3IDAgMCAwIDIuNzUyIDIuNTc4bDIuNy0uMDg3YTIuNjY3IDIuNjY3IDAgMCAwIC4wOTctLjAwNkM5Mi4xNyAxMjEuMDI5IDk5Ljk2NSAxMjggMTA5LjMzNCAxMjhjMTAuMjc4IDAgMTguNjY2LTguMzg4IDE4LjY2Ni0xOC42NjZzLTguMzg4LTE4LjY2OC0xOC42NjYtMTguNjY4em0wIDUuMzM0YTEzLjI5MyAxMy4yOTMgMCAwIDEgMTMuMzMyIDEzLjMzNCAxMy4yOSAxMy4yOSAwIDAgMS0xMy4zMzIgMTMuMzMyQTEzLjI5MyAxMy4yOTMgMCAwIDEgOTYgMTA5LjMzNCAxMy4yOTQgMTMuMjk0IDAgMCAxIDEwOS4zMzQgOTZ6IiBmaWxsPSIjNzliOGZmIi8+PC9zdmc+;aspect=fixed;" parent="1" vertex="1">
          <mxGeometry x="1260" y="390" width="50" height="50" as="geometry" />
        </mxCell>
        <mxCell id="T7d8gfbyC1gQBo59BE0N-5" style="edgeStyle=orthogonalEdgeStyle;rounded=0;orthogonalLoop=1;jettySize=auto;html=1;entryX=0.5;entryY=1;entryDx=0;entryDy=0;" edge="1" parent="1" source="ZGrB_38wMBr9Ecal8B5S-43" target="T7d8gfbyC1gQBo59BE0N-3">
          <mxGeometry relative="1" as="geometry" />
        </mxCell>
        <mxCell id="T7d8gfbyC1gQBo59BE0N-6" style="edgeStyle=orthogonalEdgeStyle;rounded=0;orthogonalLoop=1;jettySize=auto;html=1;entryX=0.5;entryY=1;entryDx=0;entryDy=0;" edge="1" parent="1" source="ZGrB_38wMBr9Ecal8B5S-43" target="T7d8gfbyC1gQBo59BE0N-2">
          <mxGeometry relative="1" as="geometry" />
        </mxCell>
        <mxCell id="ZGrB_38wMBr9Ecal8B5S-43" value="GitHub" style="dashed=0;outlineConnect=0;html=1;align=center;labelPosition=center;verticalLabelPosition=top;verticalAlign=bottom;shape=mxgraph.weblogos.github;aspect=fixed;" parent="1" vertex="1">
          <mxGeometry x="1260" y="600" width="50" height="50" as="geometry" />
        </mxCell>
        <mxCell id="ZGrB_38wMBr9Ecal8B5S-46" value="Push" style="edgeStyle=orthogonalEdgeStyle;rounded=0;orthogonalLoop=1;jettySize=auto;html=1;" parent="1" source="ZGrB_38wMBr9Ecal8B5S-45" target="ZGrB_38wMBr9Ecal8B5S-43" edge="1">
          <mxGeometry relative="1" as="geometry">
            <Array as="points">
              <mxPoint x="1285" y="675" />
            </Array>
          </mxGeometry>
        </mxCell>
        <mxCell id="ZGrB_38wMBr9Ecal8B5S-45" value="DevOps" style="sketch=0;outlineConnect=0;fontColor=#FFFFFF;gradientColor=none;fillColor=#FFFFFF;strokeColor=none;dashed=0;verticalLabelPosition=bottom;verticalAlign=top;align=center;html=1;fontSize=12;fontStyle=0;aspect=fixed;pointerEvents=1;shape=mxgraph.aws4.user;" parent="1" vertex="1">
          <mxGeometry x="1080" y="650" width="50" height="50" as="geometry" />
        </mxCell>
        <mxCell id="T7d8gfbyC1gQBo59BE0N-26" style="edgeStyle=orthogonalEdgeStyle;rounded=0;orthogonalLoop=1;jettySize=auto;html=1;fillColor=#6a00ff;strokeColor=#B266FF;dashed=1;" edge="1" parent="1" source="T7d8gfbyC1gQBo59BE0N-1">
          <mxGeometry relative="1" as="geometry">
            <mxPoint x="910" y="245" as="targetPoint" />
          </mxGeometry>
        </mxCell>
        <mxCell id="T7d8gfbyC1gQBo59BE0N-27" value="Resource&lt;div&gt;Provisioning&lt;/div&gt;" style="edgeLabel;html=1;align=center;verticalAlign=middle;resizable=0;points=[];" vertex="1" connectable="0" parent="T7d8gfbyC1gQBo59BE0N-26">
          <mxGeometry x="0.0877" y="4" relative="1" as="geometry">
            <mxPoint as="offset" />
          </mxGeometry>
        </mxCell>
        <mxCell id="T7d8gfbyC1gQBo59BE0N-1" value="" style="shape=image;verticalLabelPosition=bottom;verticalAlign=top;imageAspect=0;image=data:image/png,iVBORw0KGgoAAAANSUhEUgAAApcAAAEcCAMAAAClLW8lAAAC+lBMVEUAAAD///9/f3+qqqp/f3+ZmZmqqqqRkZGfn5+qqqqZmZmioqKUlJScnJyjo6OZmZmfn5+lpaWbm5uhoaGZmZmdnZ2ioqKbm5ufn5+jo6OcnJygoKCampqenp6hoaGcnJyfn5+ioqKdnZ2goKCbm5uenp6hoaGcnJyfn5+hoaGdnZ2goKCcnJyenp6goKCdnZ2fn5+hoaGenp6goKCcnJyenp6goKCdnZ2fn5+hoaGenp6fn5+dnZ2enp6goKCdnZ2fn5+goKCenp6fn5+dnZ2enp6goKCenp6fn5+mpqafn5+fn5+urq6enp6mpqagoKCenp6ysrKfn5+urq6fn5+2trasrKy7u7uenp6zs7PAwMDGxsbKysrAwMDLy8vPz8/S0tLLy8vU1NTY2NjV1dXb29ve3t7f39/a2trh4eHl5eXh4eHm5ubo6Ojo6Ojs7Ozs7Ozu7u7v7+/w8PDw8PDy8vLy8vLz8/P09PT19fX29vb29vb29vb4+Pj5+fn5+fn6+vr6+vr6+vr6+vr6+vr7+/v7+/v7+/v8/Pz8/Pz8/Pz8/Pz8/Pz9/f39/f39/f3///+Pie/ExejExc5QV8D6+/tpYurt7Pxwaer09fZtZupoYeprZerX1fr9/f+4tPVnYOne3Ptya+u6vOWfodvAwudVW8FPVr/b3OHu7/F4fM3c3fFHT72Ii9GVmNdNVL/////5+f5tZ+rx8P1nbMj09P3S0Pl1b+v9/v5LUr75+frf4OTBw8za2+DBvvaNkNS9ufZASLpSWMDNzuyvseDk4/v+/v+Ffu7CxMxvaeqsqPP+//7LzdTGw/fy8vTJy9KQk9ViXOjExs5jXemhnfL3+Pq4usS9v8jt7fDg4ebO0NbExs3o6ezT1NtaYMLw8fLy8/eoqt329vd+d+38/P2alfHW193d3+Pq6+7l5unR09n39/nX2d/+//++wMm8vsfP0dfj5OjU1tvDxc3HydHAwsvLzNPMztXm5+u/wcvNyvjFx8/o5/xqY+ohYcWgAAAAkXRSTlMAAQIDBAUGBwgJCgsMDQ4PEBESExQVFhcYGRobHB0eHyAhIiMkJSYnKCkqKywtLi8wMTIzNDU2Nzg5Ojs8PT4/QEFCQ0RFRkdISElLTExNTk9PUlJVVVdZWltdYmdna2xydHZ5f4CEiYuOkpeZnqKnrbC0t7q9wMXHyszR1NfZ3eDk5ebo6Ort8PP09ff4+vz9qI9RawAAAAlwSFlzAAALEwAACxMBAJqcGAAAIABJREFUeJztnXl8VNeV58PEOPHCbvZVLAK0SyAhtFeVNsTilWADMQRsCDYGvGASL8Hpjtd4wZ1gg43jdrqnWyTu9gO3YxkV6TRpk8JNoKcmY5bBw4yssLdYSjJUynw+c865975336tXQlvpVanu749ES2lB9+vfWe5993zjG0rXUC9J/430TdR1qN6o61Hf4vq2LvER+jS+Dr+AvpR9F+nbOv1PVIo3RWZSEKnDeIOddEI5nIJNK5pO/zuV4kl2UHImOZICyBtRN4WJPszxZHAyNhWaSh2V1So5lIxJhiQHEgC8GdUnTPhRxieDk9i0oKnIVGq7WoeSmNSJBAD7gvox9Ufxt/vBhxme5J2czchoOv2vVoptmamUoSSj5ExyIjmLA1ADJdEHGKNIJzknY9OEpjJNpbYpzCoNKLlRMiYRSQISIBwEuoVpMIi/CR8kQBFOwaYFTWGaikylVmVPpXBKiUmdSMbikCFDhpoFHxlCjCKdBCexaUbTxjSd/gsoxZ5sArhulQJKnUlAkoAcOnTYsGHDQSNMgg/Ax5FPDiewCb4p0FRkKrVVdlRyKG9AKMEoIXYTk2CSjEjEceTIkaNAo02CD8DHkU+gE+AENsE30TYZmmSaRjhXFZCSvVqhEqwSnZJByZkEJJFIxHHMmDFjx44dR0oCsbfgQ2PGIJ9AJ8BJbKJtkmtCrilMU5GpFFnheSWnklslhm8ySgjdxCQgiUQij0lJ48ePnwCaqAvfgw8mJY0jOgHOEeSbAk3INck0jXBuIdPpv4dSTMhiliYqySqZUw7G2M2YBCSBSORx4sRJk5KTkyejppDozeTkSZMmTUQ8Cc7RozCoMzR5POfhXJGpZK+IVGIA70NUSlACk+CSiCQBiTBOnZqSkpJqEnxg6lRAFPAE+0Q2xxCbBpo8nDMypQpIgalEMmOJnSHDK1lWyagUUAKTaJJIJACZmpqWlp6ekZGRKQveT09PSwM+gc7JyeicxCagaSKzj4lMZZlKumzMUqLSFkpgcgpYZCoCmZmZlZWdnZOTMw01HURv5ORkZ2dlAaBIZwqxydHUTVMik9fmVjKd/tMoOSbJLI0QjjW4mUoGpcEkIAkOiUAii7m5eXkzQPlc+HZeXm4uIJqDdAKcxCZDk+I5N009mjMyKZgry1SKYJYmKtEqySkJSsYkIAkOOR15zM+fObOgoLCwsEgSvFtQMBMIJToBTmBTR5ObpkQmdY1MwVyBmciyZJbMLFm507cfUYkBHKwSwrcOJTKJSCKRwGNRcXFJSWlpWVmZSwjeListLSkpBj6BToAT2UTbBDQhoDPThHCOZA7gZGKaKYK5iuUJrfAYLoVwTiUE8LHjIH5D+AYo0SgZk4BkEQIJNLrdHk95+ZyFi5cuX7Fi5apVq1asuH/ZkoVz3EBoKcLJ2ETbJNecnDxxAmSagsyBOpm2lun0H0mpuyVjaZilCOEUwUeOoqxyUvKUqQQlGKXOJCDp9pTPWnT/6oc3PP2TV7QwPbfhoWVzPG6Ek9gE20TXTEtF08RwjmRCNKfaXLJMBWZCKyyG65klJpYGlRMngVVi+GZQIpMMyYX3r93w403hPMra9KN199+ObIJvEprTcrIywTQh0zTIxK5RmGWqWJ6YsmApmyWE8CFDMa9EKiGrRKvMRijBKMEngclZSx/6wQutEymx+dSaJZUesE1Ec0YeM00I55BoAplYm/M0U1imiuWJK0tqaWBJIRw7Q5hXEpXpGWCVueiUxSVglOULH3jCJmq3rhceXT7Lg65ZWICmCZkmkQmeOWb0SEwzZctUsTxhZcLSiOHcLCGEQw2OERyohACOVllYhE5ZuXzdj9vLpEDzkaXgmpBrgmlCpinIhNp81EgK5sIyTbFcgZlIslY8WIfz5hCZJSaWEwwq0SpLy9yeJQ+3OXjb6tm1i8vdEM8LKZwjmVgBJWGaicFctkwFZgIqHEsRw7lZApUTk6HayWBUolV6Fq7pqFPK+tGqOWCaFM4FmRNZMGeWaYnlCswEUgQsMYYzs8TEUqYSrHLZD7oAStJL6xYimUVEJtTmFMzHjiHLpP0fBWZiyh5LHsOZWbIQrlM5a9XGrqIStWnDEvJMyDOnZTMyqTIfLmK5SDIVmAkkM5a8EMfUEmP4iFGjuVlmZkMNTlTevqZzWaWdnlimk8mDOcsy9ViuwEw02WMJqeXgISyGo1liCIcavLjMPWfNi11OJerJpUQmpZlomZhl6rFcr35MYDr9l1OKomywZBWPHsOZWUIILy51zXqg671S6IeLPK4SSDMhmKNlUmHOYrkCM+EkorjoW3IsB3IsMYanpmfl5M6YCSHcs/yZqFEJem3d7e6yEgjmzDKxMGd1OSaZCswEUq9WscQ6fPLUtAw0y8LiUveCx6NJJeqFB2ZBMOeWSeXPGEoyFZg9W73sZA3i/foPvGXIUEwtoQ7HGD4dzdLleeDlaGMJ2nivp6ykCC0zM51i+Rhe/Sgwe5xsaTSglLfEb+JYYsVDqSXFcMgs3Quf7AYqQZvWznKTZWIsZ3X5SNwvjwCm039bpY4oMouGvhnWTRdYQmqZkYUxHDLLlT/tHixBzywBy4TCHGI5JZms+lFg9hC1TiO/3kW6o83opiOWY5MmJk9NxdQSY/icx7qNSo0s01WKsTw7M40aRhHAVJE83hSByG+add11+g3p7IEJvZs+mrCEigdTy1L3oqiW4TZ6eiHG8hm5OZlpKVj9mMDkW5IqxYwz2SFpIlHnsbdxGbV+UEP0h6AQz8yZDqllmfu+l7oZS0178T5PWXEhJZlhYLLTRSqSx5XCoZSI7N3bgJFLXEYtTqYTltgfgkI8JzcfsPSs7nYqUWsrXZRkZmFZbgLzBgVmvMmWSfPUJ33skzFr50bj4bIhrG05aXJKOmJZWOKqfNgRLLVNG+Zgkolgpspg9rlZpZjxJTsobcc+GXOfbhSX9rNbC/iOOOsPTSMsZ21wBkvQ0/PdFjCpwW4DptN/eaXIslBpDI4wzdjhY5/0wU83iwvSB7CHy/iOeCpgCYV4qWvOE45hqWnPLraAiTs//fv1EUW5iuQxr7BGuWXu0w1ixg4b+6QPfurLBknwuzTw4bKkibxtiYX4nG5qpkfQS0tlMMeOpi3J/nQeU6WY8SAbq5RKbTbORBr7JA9+Yhek0xVtI0exHfHUjOzphOUsZ7HUtJ8ug7KcwMSqnMDE85i89lGRPLZlpZJ3ysUd/WFjn9jcJzb5CUebDBZU0sl0tiNegFh22bMSHdYryw0wJ44fO2qEqSiXuphOr4GSVdYIrs/Y4VAaY58G6GOfxOAnMdqEbrMcy06mp/O2padyvdNUgl6931NWJMBMGjPKUpQrw4xVRaTSgLKfMWOHJpANIdG8p2FskARdsTqePcaTxduWlWudZpL02jIP5ZiZaVOTJySNGTl8KE8xVSSPYUWg8tvy4Ij+YuzTED72ieY+sclPI9kgibHjxL1D7LBlCWC50mkiuX66BIsf3JIEMEVRHh7JnV4JJUlmLCUq9Sv6sdRm40yMsU8094lNfuKjTfDi38niSVw8qFFeufQ1p4EUemERgJkPYLJu0YhhKpLHuKxmaaKSdyXF5IjhprFPfPBTUpIYJDFlKt7Rxp55LHWVVy143mkcDT23wF1SmD89O4O6Rbz24c0iZZixJ4tZmqk0ZuwQk6P4jB029onmPtHkp0lskATdsZqNZonPPFZUzXO6Q2TSj+a4SgpnTM9mtQ/t+xiRXBlmbEmK4aa70G0GR1BZY4x9wrlPbPLTlCl8kAS7+JeuLXB5Kqtnx0bNo2t9uau4AIpyPcWkZpElkju9IEooW7MMG2cippkkibFPSCLNfWKTn9L4bBOwylykEsyyvLJm9tJNTpNo0UPUxoTaxxzJ9dJHGWaMKBxL6+AIZpXGiB02Y4dIpMFPNPkpi882AShnApWlLk9Fdc3c7/y10xxatWm5B2sfSDFZF9M2kju9JkphV/RLZsmPYNAV/WPGmWbsiLFPOPeJTX6iYTsz6Ip0vGTVU1FVM3vubY86jWG4XsDaZ8b0rPQUI5JjTa4MM5ZkxrK39dbpwXxbcRzr/+gzdoyxT3li8hMN2ykqYtdRV1SBWd52xzKnIbTTE5WukgJqr/NITt11ZZixJBlLUwzvx2+dlgdHpPC5T/LYJxr8hJOfiovZcBO3p7yisqqmZu6tt93xne5+mqdteqi8DNvrGalTpJocSh9lmDGjMCwls7QMjkhNx/6PMWOHxj6VlNLgpzIatgNIIpPVNRDBgcq77lrjNIH22rTEU4pdTBbJeXedlz7KMGNBZiyvN13vOzhscARW2jMsY588t9++YOHC+bfPqqysrEIkgUmEEqi867vtvsS/m7RxFo/kVJOzfXIsfSTDdHplElr2WBpmaRkcwSptCtZzlqxY89gPnn7WIO+V5370w/VrVi1dcBtAiVTefXfULyHqsNaUlxVjJGfddVb6KMOMFdliKa7oH043Vk6QB0cU0Nwnz6JVjzyzKfKav/jUIyu/ezfoe92GWbv12mKI5FiTT03WSx9lmDEiOywtV/SbB0eUlLnmrHi8TddWPr9h9feeijZdndDTlbjtgwc4lGHGmiJiKa73tQ6OuP2BJ9pzNKgualR1gVZ5yoqM0kcZZuwoHEt9coRhltLgiKWPv+o0TF2o5293lxTMoNKH9Yokw1RcOigRxcNuBuRYsgchsqflEpWelV06NyIGtJZKHzvDVIHcSUl2yfqW4mbAocP1hxnp1mk8cr6iKwY/xZZeXeiG0scwzEHKMGNBYVjeKF1YKa73ZbdOu+6PzW2bTuqxChcaZoZsmGyXnBum00uUiDInlxYs2fW++DAjPgix0MmLMqKoTYs8kmEOU4YZCzIll2LQjrhHdQJNjsDMsrjUszpWN206rcfNhnmLZJiKS2ek26Udlvr1vpBZLn7aaXqiKN0wpR6mXPk4vUoJJzm5hFKcYzlosMBSXO/rWtWTWkNh4hkmluR8l7zPzSqQOyhrFKfb0AcNxokmhCVd31JcOisWrsmIol5byAyTb/oMHkStIsWlUwqL4lDz0LXTNDpCv3V6QU+O4aR13DBpl9zoratA7owMuzRjOVJgSde3LHrWaWyirpfmuEsK8nLwUR9rq0hx2e2yRHFR8+C10wLLwhLXvdEbKxo7eqAcd8mzTK0iVvmoQN7tstglJJdUiuMl/ZOm4I2ViOXS7pv+5KA2VjLD1Csf3sJUgbz7ZR/FcdIOx3JGQYlrSfcPNHFES8MrHxXInZG56IEo3q//QKx5xiZNnJySTpW4a3F0JtbHnh4RlQ89UBEWyJ1eq0SSbRTHmgexzJpGlfhzTvPSXXphFg/kk8Wej1GRqwSzOyXbpRzFWc0zLW9mcdmcnnamrRUtx8pH3/NRgdwxmeyS1eLYUGfJZU7uzKJSj3ODdrpfj6lAHhPS7bJ3byp65ChOpXip25lpeQ7pp/M8paZArrfWFZfdKatdSlGckssSV8zdwBZdraAWph7IqbXO98gVl90m0SSSix6sxTGKZ+Zgcnl7z9/mMWlDpU0gVwlmN0u2S170DBkmonhuPiSX3Tq3Pgb0sk0gVwlmdyvcLlnRA7U4RPHCEvf9TnPS7VrGKvJUSyBXnaJuVLhd8qKHR3HXnITpXOpapwK54xJ2eV1vyS6x6MGNHoziDo0Id1Ibq1qtyBWY3SA5jEt2OWlKWibW4u7Fm7p+3T/8qOu/Z5dqfuutdUVm1CWFcYtdQtEzs6isPBqPPv7m49/siMK37TqtrHSHnQ42XXCgyIyyTHZ5k7DL8cwuC0vdy6Ox7O9se/v1T/dG4zt3kR6BQF6onw4eFnY6WJEZbUWwS+oRQdFTGZV98Xfe2rJt22dvRuNbd4021lSw08G88uGG+S15+LMiM4oKs8tBwi6xR1TqWRGVZQcut2x5Y8sfYzaYb7oTTwfn6pWP5eYNHUxFZpQkccl2xuXsMlp2ybjcsu+NL3/TGJXv33ktq9Zv3mCGObCf/sAugqnIjK70MI5NIn2rR2SXUbJLzuWWLTuv/vnr2EwzV9eIB8knh80BsJDp9BL2RIXZ5S0mu6yI0mO5gsstW7bt/OzD6PyMzmn97CqTYQ41jyVXZEZXpqqHHSSirR5ul0uitOoGl1v2Xf34LzGYZj49t5om+mRn2EzZVWRGWeaeujhIRFs9ZJfRulxD4hKC+dt/eOcXUfpBHdZLt9ZU0u3BfMoui+Riyq4CM6oy99T79NXtMpXZ5fz2XJ3eHpm4xDTzTzEXzBdww8QRaNKUXeaYNmQ6vZY9SL3MdtlHnLtMnsrt8qFoLbqFyy1brm57N8a2JpeRYbJhpmzKrgDzRolMZZldrl69LHbZz2qXVVG7qTqMS+wZxVaa+eBtaJjFM2mYafIETDGHslBOYNoFc6dXtCeolwlLvRg32eXSqC16OJdbtrz1xuuxBObaO8AwaSw5RnJIMXUw+wCY9pbp9KLGv3Qs9fPAxjF1tMu8ghJ35SNRW3Q7Lrds+R+xlGSuvwMMs8KFkTwbU0wdzP59+4RbporlXaFeMpb8mXFjq2cqnbssK58dvVuy7Ln824+0N9t1zug/PvybqA2qevKuO26dXQWRHGvydAnMgf0plkfIMp1e2niWQaX+EKT5mDqzy6icJGKKyOWnO//wXpt7Rjt+v+dXUePymbvuum0uRHKoyfMAzBQCc9SIYUNuGYix3GyZCszOq5cNlvKzuSncLqsfjdaSt8Ll1x9vu/qnr9v0Pep+/av33/+nqHH53N13QSSvqXCXMjDRMZMITIzlOpnXX2+N5U6vb5zKTKXNs7n8mHplFMN4a1zu23J1y7ttCOZv/vMnH+z5JHpcvnz33RjJqwWYVPwkjR2NsRwsMyzLVGB2SnZY3ihuuxTP5uIx9epojmRulcu29Iz+179/8MmePdHkUgMuZTCh+JmaPHE8ggmxnLJMLMy//W0FZuclFzzftFylLu7JonOX7sqatVFb8WtxiRtAr3/aypfv+Jt/ef/ne6LM5cYH75HAxKo8berkSeMpySTLtMZyI8l0epnjTVazNF2lLt2TVeyqqJ4bzRv+r8XlllaPs//6VxDC90SbSwjlj33vjtsYmFCVT8/JpOonSVgmZJkKzK6Q1SzF+Ch+CesYfglrPm711NwTxQVvA5db9l395R9ttya//udPPtmzpzu4BD3z4HcQTE9ZcUF+LlY/GMu5ZQ4ayJvslGQqMDuqsBguz4AUgyeysEfkqqiZG9VLNtrAJZD59h9+E9Yz2vF3ez75+Z5u41LTXlq3cHZNpcdVUkhJZlrKZG6ZQ4fw8keB2SmFx3ATlqPF4Akseqpm3xbV2wzaxCUdZzc/Ndn4e55Ydh+Xmvba44trqspdpUUslkNdzi1ziLz7g9WPArPdsk8txXxxY/BEbj4VPXPviOr9wL+52iYuKc00Nif3/vqfRGLZnVyCNtwLSWZZcSHGcip/sJUpdn+sYCou2y77GI5YDmBYyoMnoOi5Larppfbpx2/saxOXW7YYx9k//PsPPtmzxxEuNe0HizGWF83Mm56N5Y/UyuwvjhgpMNstM5YihtMISB1L/YZ/iOK33nFfdJf5w3ff2tY2LvE4O25NfvTf/+GTn+9xjEtt0yMLyqkuz83JykidOlnEcmoYKTA7JBlLHsMptezbf8CgwZhbCizzILn0YBS/a0201/nrP79tTTLtucQTcH/R9v79v/2jlcpu5VLTXl4zx1NWUpivlz8czEESmNcpMNsuGywphhOWQ4dTbimwpOTytjvu+kHUl/kX7/3BEswjcbnlrd9pdf9qjeHdzqWmPbscy5+ZvJVJsZxVP/ZgOr3uMS4LliK17NsPx4uHYVlBWN79fDcs847fbnmjbVz+Vqv7zxjgUtPWz3fzViZtS/IkU4HZAdlj2YellthOHzdh0hQDy2pILu/6fjeNc/7os7feiisutRdWslYm25Zk++V2YKpIfi1ZsORdS4zhUPHg1HvAMtWE5aq/6rZl3vve62/sjCcuoTKf7+atTEwyx48zgcm3JJVhXlM2WOqpJWA5NmlCMjaIDCy/331Uohrf+fLqvnjiUnt+OYvlmGRawbQW5U6vfszKiqXeTGep5dikiclT06hvybBc2k0RXNJH7265Gk9catpaqstz2TF2A8w++nUcCsxrKCKWt/CKZ+LkqWmZNDC3zFNZvSBaF2y0rg//9MZb8cSl9sR8tl8ugYl9zD43h6WYTgMQm7LFkjfTIbVkhXhmTm4+YTlvtVMTxn/xKaaZ8cOl9teLpOcrCEy8v0gGUxlmZF0DyyReiOfmF5a4yivvdXJkbuNfvnw7jrjUXlpuAXMYXazVR9Q+yjBbUQQsWSHOKx4qxAHLWWuidRlRG/Xh7/7nh/HDpfbaSgEmhnJqsLMb325UkfwaagVLXvHgSQ1WiC/+kVMLbOjTHXHEpbZptUeAiX3MUeLGt5sskdxpCmJOIorr7XSOJSvEpYqn1F25+lXH1tekT/ftbA+X70fv+fE26CEJzKSx+sVaPMVUhhlBkl3aYpmCp4CpEJ8f/d3wNmrHb3faHM2MwOXP3/8/v3f0FmwBZhpuSY4ZyS4VNm67VoZpJxlL/pR4n36mgxpYiBeWlHmWxNIY5zf/FHbOKAKXn3zw7//X4V/2IcoxczLZ3a0jh8mXCivDtFV4cskPARsHNXJYIb4qRmI4F+sZXZPLT97/z7bdyxFNbcLiB3d+Unnto0dy0V1XXFpkSi4tT/Lo54cAy8qYGkv60XsQmHf88Zdv72udy398/1e/joURK5vud5cU5rMb32g8wGApkivDDJdul3opbnqSRz8/dHs0xj92XJ/+kp7n+fBdU5pp5fLn7//D38XIXZmvLHZJlwqbxwMowwyTpeahg22E5Qj5bHqpe4GTvXQbff3xGx//Dh8b/1pOMy1cfvLB/3M6sTT07HxXcUGeeTxAHz4aTU3ftcqI4r1781K8/8BBDMuJBpaLYqniQX398b6dV2k8xd53/vD2TjsuP3j/n1q7I6bb9WQljQfITLUZ9KMM0yxrFBcdItzlkbBcHMUr2zom6qvvfOPPSN5Hv/0lf9BC4vIf3/+XX+/Q/sPp31PWWrzteroY9DOMZpxaDNNpHmJFchSXriASd71wLJe86PSShonv92zb+RkG848+Y2mmziUmljE2twJqn2U4t0KP5EMHD+rfz1r6OA1EbMgcxUVyOVTc9ZLJsXTq9FArEvuQ+974GIft7n3vzxjMBZeffPD3sZNYGnoeUkzsYkIkx3kqrPQxhu8qLoXCo7goxfW7Xkrd98aeW2rS/vjOq6+/16hpv/jNl2/vY1xCYvnr2Bxy+hiL5OkpyWEzThWXhiS75Neuivst8VIN2uWBkifmckuUfG5j2xt0o/VHv9vyt8Dlv/7bv/zeyc3wVrWcRvZJQ6GVYdrIZJc38MvT9fst8SLBEveC55xeS1uZzxNt2/k77Ga++Wd8ftzxTcdW9OycsmIc2QelD25HMsO8QRmmSRa75FF8+Ehxv+WMwhLX7THWtxSynHPb9/aXf8FgvkPbG3PljklrcSj0dCh9pF6RyTCdhiIGZBfFRXLJriByVf7Q6YWMoLDzlzvfeL3tg1Oc0ysLsbuek5E6eWKSbJh6q8hpKJyXsMvr5BEoQ2mfZwrUPHkzi8s865xex0iyORe8LQaH7YbrcSp9hGFChok9TBXIJdlFcda5ZPdbFpV6Vjm9ihFle1796s73nP69rq3FUPoww2QlOdv0YYFccWmxS95RZ1FcJJfuxa84vYgRZf8cxbbfOf17XVsbystMhmltFTnNhdOy2GUfNvcRa3FqqBdAzRO18c2dV8Tne2Jf3DBTJrNNH6nyUVx+Q+dSGkeqz33MYJenO3N3QdsUx1yu54aJmz4jhw3hlY8K5Ewmuwyf+1hY6lnh9AK2pjjm8jXcjczNzkhJnsBbRebKx2kynJWNXRpzHzGKL4jJfR6hOOZSW4M9zGmZqVPoWBFVPiqQCwkuZbuEoseY+7jB6eVrVfHM5XOzyDDTeeUjBXLFpRTGzXY5NS1rOs59jOq4qM4rnrnU7jNVPmzPBwI5TzCdRsNRhdslH5MLRU9eQbFrTqwdULcorrnUKx8VyK2Sqh7ZLnEDcjp21KM5JLcrFNdcvjyHB/JkFcjNku3yBpFdkl1mgl2WuBfE1qPi4YprLrUVUPnIgZy11hWXMpcWu8wGuywrf8zplbuW4ptLCuRGRa4STCG56rmpT1+rXd7r9MJdU5/+Mp65fNGoyFlrHffIWYKpuBRVz819+uFWj2yXsd0jQn3056s2F7rFC5faUg+ryKm1zvbIjQTTaTicU1gYp60eXoyXuBc7vWxtUOM7X74dRmbccLmmvIxa63SoiLZ8IMFUXOphXFQ9Q4aP5L3L/BjfGDe044+/vLovTrl8osIld4p4gpnwhY8pjFPVM4LOtzG7XLjJ6WVroz787Oq2+OTy5Wq3NcHEDmaiFz46l3QeWFQ9U9Kyps0oLCuP9d6loV98/bopmMcNl9pikWAahzBV4UPpJQvjtNdjVD25M4tds2L6wIZFO/Cx8TjkclV5aeEMcweTFz6JzaUpjONTPVj1ZIJdlnpWOr1m7ZM8bDd+uHy4oqzIvvBRXGI1TmGctsYnTeFVT2xddNkGff3Z1bfijcsnKl3FEQsfp/lwSnJ6KcI4nQfGqmf+JqfXrN3a+x5PM+OHy+cqsfChp3z0oxuKS5Ze2ofxB51eso5ox19o2G78cKnNg8JHProhCvKE51JvqrNqnIdxV8VTTq9Yx/TRuzu3xROXizyl0o7PIF6QJzSXdmGcVeMYxp1esA7rzT9dvRo/XC4r148UyY0iamA6DYhDMrjELpFoqqdm5MRhNS7rF+98+a7Tv0ObtVLsRNo0ipwGxCEJLkV6OWwENdUzsRqviI882V3wAAAZJElEQVQ9yAja8abTv0GbtdrSKFJcmtNL1iUaP4k11d2V8dRUj2etpR1yOoLJbjdQXBpcSullSjrujXsWOb1eiaJHpAbmCGpgGo11pwFxSIJLKnukMxuQXpbH7k1ZPUzrsYGp37rBG+uJzqUpvQQu8fKXzGmYXj7i9Holimy5/JbiUnApdS9nFrsqY/R64J6nH1a5S9iGT5JlwyfBuZTKnrG87Clxz9vk9HolihiX4gSmmcsEBZN2IUXZM4iXPXgkuFSVPd2mJxWXFlnK8aHDRxllT4zf/tKDpPzSKttyHA9tQNnzkNPLlTDaoLi0SOfyxpv6mMtxV0XM32fQY7RecWmRwSXbheSP9kzPj+GxKD1Pj7bCpdOEOCPOpU2byK3aRN2mR1SfyKJwLvU2UdXzTi9Xwmit6qtbZG6rG+3LghJP1SanlythtFrtQ1okuORtdelQsOdOp1crcbRCnduwyLLdw08TZWNbfYHTq5U4WqrOuVkkcWnd7lno9GoljhYhl+pcsKRwLidwLsu74iK3vY2yNK3OeKdOeq+uzvzqOmmWPf9KlPmr6SN1ddKrjS/fK15fJ38f6bvS1xpfWqf/DNMnxRfUmX4F00/qzF9H153ivLp6joJL5/KmqHBpUV3E9/DtvRFfybQ37CM6N2Evr7P9HnXhb9bZvdIgvc78ZXVhv0hXkPlSDT7fI547G6qeO2uVy644ttFQa2h3/S5t+wn9vYu7tFP87ZOnj2u45lv5Z+uvNOgsbN6Nr91s+jx+r7OER8Op07vrj21nwGyu5589cmoXfKBOu7h79xFhko31teeu6N/1v+q0xsOn4Qcd19grz+0+afzW8Krjx+p3Xzy1ld6u066cq61l/B47V7u7Udt1jv+k08ft/xNqn35UzZ+HlG9mTezndFuJ412RX25vQh2i/z0fatCOfB5k7wTPX27Qdh/i7/gPnmyE9T3MPxsMfXVRmNKV8/CBlgNED3y+iX918wEN8KjfHwocagkdvERkNoTYt2vyhi4choirffX5oeBFbp0nm5o+P6OJaKxppy80B4It/oNnTuErj35+3icBdvzEwVDLIV9of+1Z+Gij9sXnTU342Ubt3OfB843aVvHP8B88cbzzYK6vwgvd1L0Gklqpe7ri4fHjPlDA7/fD/wW/atBON4XwTfhY8EKDVs8+Ae95W04CiNvhswF6v8XHva3xki/kDwWPkG1Jn//qgKadvRBs8XnhXW9L6Bi89uz+QIg+DT/r4HGA6EJLyHtwKyF9PBQIBU8ILrXG3fAjUN6g/wiC1xJoNn7rw6EWL322JXh0K2J7LhgKMS5rg6EAcBlkv0gAvr75WKfBfMi0DTlE3QPTap+oK/qXDfX19Re/CIZadh+BN3ZpFw/5Q7X1pNO7tJM+Xwg+fmR3CFYYIuL2Q6EQvnB3yN9y9Cwt91kvABDwXthMXB4Cto7QV19s0BouBIGNL47UNnv93gCAefarQMsl/PQFL7wOAvjRYCAQPINYNl5uCfibdC73HgkG4EfU1x6EH9xyWtPOBH0Gl4dD8A2bdx85AT85eHkrfNGJpoCfc9nk9wKXTX4//iLnDvr8+IpOgnm/ua2uuGy1r17duT+2UKN2+nyoidauEbncv4t/AmKrz9vM3Oyg11ePXPqbMWJrp1r8AWZDR7zey5dg8bdzLg8d1rBOrttbB9bl911ogC9vPBII+Jo3A5f+Q2SzjSe93v1gqMhloKUePlTrDchcHvD5A6FjULU31ofAxw8wLkUm+hW8+CRgXbfrEoB5zp7LEGQK2t5d57yhppOd5XKRcZG1PoQ8we8ZlPchB1j2IbtmnBRUDcQlvQlcXt6sf4JzCYxdCgYu6VyCve33H7qIENVdDgS/OLzf662tY1ye3y6+79b93sB+/r3qvQHfRc4lJqpng8gN49LbvF07BYYscVlX2+KHRIF9aeDCya2SX8KvC9F5N3un8ajPCxmBLZfbicbGowFvZw3zldnlka81SFguI5/b6JqpkHUWvzx4+tiVK8dOb69DLlsO0ms2A0G7GZcN+P5Wvx+iK3zFVjCseqDW37yLcdl0etdWUEOjdizws5Yr/Cc07G/xfYFcnj9GHzkWDACNxKXfHzxz/GjQ75e4bNwPtG/mCSzV3DKXJ3wsKUWdAp5P23N5mL3kdFAg2mE9XS1fTzRU3WP9jdbPuXXNZW5mLs+HoMZpafEdOtPI/PLA8ePHD58J+L3HiMvQFfjAqaMB30EK6LXwilPa6RZ/yynGZSDYFAwGzx88qx1pCgUbxI8groDLYP3W7cePH2n2t5zZhfmlr/lkMASVk7+lPhTQudwcDB06qddAdf/VKMXxOu2yt+WyAG2z199U2yqXB5pCTZ2sfNbxcjxFnhAp2peJzaXtueCuOa8uuNxLcfw85HPY6Pn8AnEZ8FEbyRtoOtpIdQ9+9lCTz3eolkA+6AteaNQOQMiGME9cUgEe3A9cQhF0lv0IqKeDvhBw6fO34PcLBlqCGNCPBr37G49CBe0PXmqMwOVe3DIy+eV+b8tRPddkXJ7Tudzd5PdJXNYhl4eudI5LKnvCTgVfn9BzUlp7jqJrnu+xxvFmqsdPHmNcBlpavKFQIHRpK/dD9n4zNQ61U36ft1bb3PhF0B9oIC69+y+ALp/YpZ32+ltYsrm3rvFC0HeUuAQz/hnY41cXGxmXB7FD5PdBeuCXuAz5oZyRd3Fkv/zC17J/M9/JPOALeI+gX/7Mj++CXx7yt5j88hj48eHOcTm/Ql1jbVUrz52V39eZP7Yus19C3aPvAFKfqLb2kj8QwLSSuAydqD3hC7RcYNswJ3w+/9ETl3Z/RXUN5ZdXNjeAzjZq2w/6fJfYDrl2zO8L1FKf6Ext7X6odWrp+xOXAHDId0qTuWyE79t8nAp77fiJK9vPci5J2pGAD3JKqvq1c/BC+NpaSFTP4p45EOpvFlzi7njdF77AVwc6xeWPq8sjXfuvuDSuzRrHNnwKS8u75lZWq19etvaJNp8LhrxXGJdYjzd+4fMyN2po9gbQAYPYL79sqcfroBrC5hLo+Fdef+CA6BOBQVL3U3BZt/tzeFmdxKV2Cn7iBUpOD1w+5N2/3dS/bIAUuPkwvXkR/BwTjmMhn+8cfSEU9idEPY467Qs1nTAf+WivHqsy3RYsz4dM2DDOb1e33mtAl/57uqYgl7gkvzx4bPvh7du3Hz6+WfSJDhz0BkJbdS61Bj/QsAsbn2CDWOZArQMedlzuX+KrQ96f+c5c3H5sd7PPH6zV9P7lSW+gZTftLiKXQFE9FvMyl42XcCeo/vApcGJswSOXIfq1th/erNUD8KFzx7af/iIAP/YUfNHm/S2BwIljh+sPekNNgCxyeeT44e3HLsF/MKFOhvGVlfpuDy971Dxdm3tgjEZRZZdM0jXF8dOQQYaaUf4vGrSTAeQSPgr1ygnN6KvXQ+p4hPYRfaGtWxsatjYcC3khUDMuxdE0MC9vIPiz5lCL1x/c3ajp/UvsOmKYZVwKZmQuta1fQYnvgy9t8QcvnMX9nv8doF+r2btVazwZDHhbQs3+oM9L7X3saQLroWYf/CR0R+CS/hmhFsg5OtlW36Snl6bdnkQfw2e9Lli/9b/YVfFAZ/7eQsTleb1PRG0iKG6aII6e9AaBy73af5wAEE4Dl+cDIeSy8ai3pXk7GGJQNLi1C8GWZvh86LxsTtsv4944sBGqp276wcB5Ko0PBALBow3Yv2zRd3G0gO+QwaXWcM4f8MGX+gK70ZnPNPnY7+U7D4ZddzGEW/aQ1H51SvwbmvFH+QK+3dj33HoIvxj+FfAfAFRY4Qfw2qGnqu3G6Sb82FL5enXTlBQofLrkgiIwm+BBr/DLluYQCfzyrFYf8u8nOzqwPxTav0vb3tLMaojjgWbI547Ay7bz40Cnm0PNx48HD7aYg+ax2i/8+3cfOUuvOXu0uYW1Euv9zQGok84EQnonUmsOec9pUia49eSl5ssnjgCG8NFLPvF7eem/oF0Xdx/1n6m9Yrx+88VLRw9eqsWX79UavPzlly7u0jqp1VWtjR9XXFouKILCx1P91539oytdU4sgjFum6Yr0MnHLcWtBbjq54a5UF7NGXU9jlwif7TGehVTp5Tfkgtw6VgoSzOVOr1rP1wOiSyQ926PSy/A5KaYEc7YaSBFlvTrfCOPG5rhKL8PmnQ3VO+vYwXzY6XXr6dogNnv4JiR1iYz0UnFpJJj6TdYQyL/n9Lr1dN1f6RbVuCWMU3qZuFxa5paKI0U8kNf8xOmF69n6yWzWVKcwPlKFcUl8zjMmmOYJPjh/vFLdGRxVPQRVD2+qJ40W1bgK4yhLgsk6RXogn/+a00vXk/VTUfWwproexq+/TnEpJZhGp4gF8sJST1Vcjy6Nda2j5qW+Ny6H8URPLwWX112PnSIK5OJyA2qtR+E2GCWuVxeIqoc1L1UYl9RLJJh6IDda61D5VKtb1qOmh4Vd8uYl7Y1TNa64DAvkrLU+YXIqr3yWOr16PVavCLtkR4lY85LvjSd8GJe5pIqcz3qGykcZZnS1ltuluJcIqx7aGxdhPOG5NAI5r3xGJ+FeJDPMe51evx6q5+9kdklNItrrGdDXqHoSPowzLoVhYiCnyocOFTHDVCV5VLSyymSXeCLYXPUkOJd6Rd77W7zyMVpFZJgLX3Z6CXuinqqpcInsktslNYkUl0JGIOeVj8Uwq9Y4vYY9UJsW41YPFePhdqnCOKqXtfJhrSKRYboq5j3j9Cr2PEHRg1s9FrtUVY8kziWrfMyGCSU5bvqoXlFXa+M8KHoKZ0wTvUsbu0x4LlsxzIwc3CUvr1bnMLtWr91b5YGiB3fGaatH2aWdeumVj9kwJ01Ny5o2oxBKnzkqknep1lRXuIqpRzRl0vgx1LtUdhkmKZALwxw8jB13S8/OzS+CSH5v11zSqkR6YjZFceoRsZ3xQf2NYlxxKWRjmGzTZwqWPhTJVzu9lj1Iz87nUTwjhRU9tDPO7VKFcUN2hkm75MkUyQtK3BU1qrveVXptSVV5WfFMiOJpU6SiR9llmHpZDRN3yVnpk5KRTTV55Z0bnV7PnqJV1dhRh1qcR3FR9JjsUnGJMhnmDTf1MUofjOS5M4vKPFWL1EO7XaJ1NRVu7KiLKM6LHmWXNpINEzd9jNKHInleAaSYVUtfcXpJe4LW11R6SiG5zMlIpShOx4GNHpGyS5MshslLHxbJ07Omz8Btn+r7Nzm9qPGvJ+dVenhyKUdxKHq+fX1vZZdWmQwTSx86IAyRnLrrmGJC7VO9yulVjXs9fSfWPAV5LLmMGMUVl0KGYbLSR0RySjEzcrCLCUV5l9yImcB6en5Vuau4ADuXlFxCLS5HcSx6lF2a1Ms2kg8byVJMqn1K3ZU1qo3ZGRGWUIpDzaMnlyKKK7u0F+PSHMlZiklgTssDMD2VNQ9scnpx41dP3IlYUimOWGJyOWTQAHMUV3ZpkcUweSSHFJPXPgLMFeqmgw7q8XkMSyrFsebBjR5ILo0oruzSRsIwdTD7sm2fUWPHm8Bc/lOnFzg+9bCOJSvFoebBjR7qqKsoHlmGYUop5qAhrPbRwYSqfLG6TKv9eu2BGhOWrOaRk0u96FFcmtVLrsm/dYNIMbH2gaJcAvOeJ51e5bjTC8trKj0GlliKs5pHTy6VXUZSL2skv6lPP1swq+apc8Lt09MLa7CdXjBDYMlLcax5KLmUorji0iprJKfah4pyGcwSV3lVzf0vOr3U8aSH51VXuBHL6dk6lnrNc8O3rpdrcYVlmHqFp5i8KDfAzM0vLHFB9bOwa6aTJ4Kevw9SS3dp0UzsW4ZjqaL4NSVHclH7SGBC8ZOZk5tfUFzmqaievVod42iTNtxTUwkVT9HMvGnZGalY8rSGpeLSTqYUk9rrFjDTMnOmzyiAJBNi+XeVZV5bL6ysqa6A1BIqnmlZ6di3xJKHsJRLcRXFW1VYJJfBxD7m1LSM7OmUZHoqq+c++JLTyx7renQ+xXCqeLLSU6ZMssFSJZfXlmSYtmAmT03NoCSzuAzq8pp7HnN64WNaTy1Fs6QYjhVPyuRJE8a1iqXiMpIigkkN9qQJyVNS07NyciGWk2XWLFG9zEj68YrZkFmiWeZjapk2dfLE8bTLM1jCUiWXbVOvSGDeAmCOGpM0gZJMiOVkmeWVNbOXP+00ADGpFx68taYKMssSrMNzKLWcOH7saMRyEJY8ZixVFL+WIoE5kIE5DpNMiOXMMqEwr6qZfZ8i06oX195ZU13pcXGzhBiOqSXHcoDCsgOSwextBpOSzKSJyVNS0skyC4pLXYzMJ5wGIab0wprvAJXlbijDuVlOnTxpPEstI2OpuGxdtmDiliSvfjCWQ12elTN9xsxCQebiR9WNHFzPrJrHqCwpgjKcmSWL4VTxDOgn+pYKy/YpEpis+qFYDpYJWea0XInMe9b82GkiYkCvrl82W6cyP296TiaZpYjhhOXNCssOqZc1x2Rbkn37U/WjW2ZqOpKZX1DEyKyumbv00QQ/m7nxwe/MrqmSqMzKYGZJMZwqHijEbxINIoVl+6RzKYGJx94wyYRYblgmBnNIM8kzyyura2bfufIHCRvPn1l7L1gl1OBWKplZQgxnqaXCssOygqlXP5hkcsuUyKRoXuYuR9Oc/Z3vP56ArrlxzeLZNWiVUIMzKiGxFCGcmSVLLbHiUVh2VNZQLpJMiOXCMlkwZ2RinllUUoamiWjOW74ukW4zem79ynvQKQFKsMriQvJKRiWFcG6WEMN5asl3eRSW7ZcFTKp+8ECmYZkYzAWZWAFROBdoQhn0/Uc2bnKamKjrhScf/v5CMEoI3whlaXFRwcwZGMGRSkwsk6gMJ7M0YjireBSWHVE4mEZdjpY5bAQEc0gzGZlQAWE4xxoI0axgbN657KENz/MV3PTiiy++ZOj5n5j0zEaTnjTpiQ0mrX/MpIfXmbTGpIceNGnV9026z6zvmXTvd01acI9Jt84FzQYi0SeRSRdCWTgzPy93GuSVBpWjRgwfys0S20Om1FJh2QHJYJpjOVomNtlHjEIywTMhz0zPzMqZlpuXj2hCQHcTmwhnzezZuIRzb0Xd1kbd2hHNjapuIw5JNUzV1VWAJGeyBJ0yf0YuBvCMNBbBMbHEEA5luGGWCsvOygomxnIjy4RgbpCZPGVqKpomZJqIJuSaYJsEJ9FZXV0jNDuiarpD1e1XlUWVqArgsdzjcSOSyGQhhm+EEq0yZcrkSTqVLIT3ixjDFZbtlgGmNZb3ZcEc0kwiM2nCxGQM5+mQaaJrziA2iwFOcE63x1NeDoACoh1XRTtV3l552iQ3k8vlKitDIIFIRDJ/BhjlNIIyLQUC+KQJEpUshJvNUmHZKfWyi+UGmYMEmWPGJUGiCaaJaIJrTpvO2AQ4gc6S0lIAFPwT5Y4sV/tU1i6Vtk8lEVWMKgIcCwsLCmYiknmMyUyAErJKCOATxo+DvFJQOYBRyc3SEsMVlh1TeCynLNNIMymajxw9BsM5mCagmQpoom1ORziBTsCzABYRlrKouD0qaqcK26uC9mmmrnzQDOAxLzd3OiApmExBKNEqx43BaodT2apZKiw7KlMsNwVziUyozZlpCjTRNhFOojM3Lw8ABUSZZpqU337NaLfy2q/ciJqOmjYNeMzJzs4CJDmTmFQilBjAw6lUZtnFCovlUjDXo/nQYdw0Ec1JjE2Ek+jMBj5zYCGnTe+YpnVAOR1RdhuURcoEZQCQ6WmAJPokGCWHEgL4iGFDh5iotJilwrIr1MvGMlmXXZCph/NRAk1iE+AE50xLTwc+M3AlM7PapcwOKaODSm+b0kipoBQAEl0SkCQmBZTDLVSyEI5luNksFZadlZnM6/RgrkdzTuYwhiZjE3wT4EQ6pwKfKbiSqWntU2pHldJhTb2mppAmg5KTkUhAEnySmDRDaaZSmWUUZG+ZJjINNJltApsEJ9A5CRYQ13HylE5ocieU3AlNstFE1IQJACS6JCA5ZjQZJYNSWGWrVCosu0aRyMQ8E2tzZpoMTbRNYJPgRDrHA59IKJfdIndcEzqn8e1VEtM40NixjMhRIxmTOpQUwPW8UlEZTfVqhUxhmgJNxibCiXQCngjoOGS0YxrXaY3ttMbIGo0aNYqIRCSJSQjfAkqwShOVCssoSgZTkMlrc2aaHE0I6MQmwkl0jsQVpKUcPebaGt0lGtUlGhlBI1DDhzMihw7hTDIomVVSZ0hR2T0KJ9NqmoAm5ZrEJsEJdA7DFRzB1epSd42Gd5mGRdBQ0hAEEkO3YJKckqCUqPymhUqFZderV2tk6miSbSKbg4hOwJMAJUVaaXm9u0xDulKDTboFRUAOHDCAMRkOpaKy29TLhOY3pXAu0BRsEpxAJ+I5iJbxlsEd0S1R0KDOaCDTgAEEJBBJSCKTEpSmAK6o7AbZkUmmqaOpswlwAp39aQUHDIyqBkRN/W3VjwT/RIEkMWlAKVmlorKbZCYzDE2DTYCT8OzLVrGf/RJfU/2irb7tVR8m+BcikYCkYFKHMtwqFZXdoHA0r7tOD+iMTQYn4ckA7SMovdZyR183d043cd14IyMSkDQxaWOVPYvK/w9SFmt92kMujwAAAABJRU5ErkJggg==;aspect=fixed;" vertex="1" parent="1">
          <mxGeometry x="1180" y="200" width="209.93" height="90.03" as="geometry" />
        </mxCell>
        <mxCell id="T7d8gfbyC1gQBo59BE0N-2" value="Main" style="rounded=0;whiteSpace=wrap;html=1;fillColor=#6FB789;fontColor=#ffffff;strokeColor=#005700;" vertex="1" parent="1">
          <mxGeometry x="1085" y="530" width="120" height="40" as="geometry" />
        </mxCell>
        <mxCell id="T7d8gfbyC1gQBo59BE0N-17" style="edgeStyle=orthogonalEdgeStyle;rounded=0;orthogonalLoop=1;jettySize=auto;html=1;entryX=1;entryY=0.5;entryDx=0;entryDy=0;dashed=1;" edge="1" parent="1" source="T7d8gfbyC1gQBo59BE0N-3" target="T7d8gfbyC1gQBo59BE0N-2">
          <mxGeometry relative="1" as="geometry" />
        </mxCell>
        <mxCell id="T7d8gfbyC1gQBo59BE0N-19" value="Merge" style="edgeLabel;html=1;align=center;verticalAlign=middle;resizable=0;points=[];" vertex="1" connectable="0" parent="T7d8gfbyC1gQBo59BE0N-17">
          <mxGeometry x="0.1034" y="1" relative="1" as="geometry">
            <mxPoint as="offset" />
          </mxGeometry>
        </mxCell>
        <mxCell id="T7d8gfbyC1gQBo59BE0N-3" value="Pull Request" style="rounded=0;whiteSpace=wrap;html=1;fillColor=#6FB789;fontColor=#ffffff;strokeColor=#005700;" vertex="1" parent="1">
          <mxGeometry x="1370" y="530" width="120" height="40" as="geometry" />
        </mxCell>
      </root>
    </mxGraphModel>
  </diagram>
</mxfile>
